<svg width="118" height="24" viewBox="0 0 118 24" fill="none" xmlns="http://www.w3.org/2000/svg">
<path d="M15.3636 8.23438C15.2145 7.71591 15.005 7.25781 14.7351 6.86008C14.4652 6.45526 14.1349 6.11435 13.7443 5.83736C13.3608 5.55327 12.9205 5.33665 12.4233 5.1875C11.9332 5.03835 11.3899 4.96378 10.7933 4.96378C9.67827 4.96378 8.69815 5.24077 7.85298 5.79474C7.01491 6.34872 6.36151 7.15483 5.89276 8.21307C5.42401 9.2642 5.18963 10.5497 5.18963 12.0696C5.18963 13.5895 5.42045 14.8821 5.8821 15.9474C6.34375 17.0128 6.99716 17.826 7.84233 18.3871C8.6875 18.9411 9.68537 19.218 10.8359 19.218C11.88 19.218 12.7713 19.0334 13.5099 18.6641C14.2557 18.2876 14.8239 17.7585 15.2145 17.0767C15.6122 16.3949 15.8111 15.5888 15.8111 14.6584L16.7486 14.7969H11.1236V11.3239H20.2536V14.0724C20.2536 15.9901 19.8487 17.6378 19.0391 19.0156C18.2294 20.3864 17.1143 21.4446 15.6939 22.1903C14.2734 22.929 12.647 23.2983 10.8146 23.2983C8.76918 23.2983 6.9723 22.8473 5.42401 21.9453C3.87571 21.0362 2.66832 19.7472 1.80185 18.0781C0.942472 16.402 0.512784 14.4134 0.512784 12.1122C0.512784 10.3437 0.768466 8.76705 1.27983 7.3821C1.7983 5.99006 2.52273 4.81108 3.45312 3.84517C4.38352 2.87926 5.46662 2.14418 6.70241 1.63991C7.93821 1.13565 9.27699 0.883522 10.7188 0.883522C11.9545 0.883522 13.1051 1.06463 14.1705 1.42685C15.2358 1.78196 16.1804 2.28622 17.0043 2.93963C17.8352 3.59304 18.5135 4.37074 19.0391 5.27273C19.5646 6.16761 19.902 7.15483 20.0511 8.23438H15.3636ZM31.0907 23.3196C29.4075 23.3196 27.9586 22.9787 26.7441 22.2969C25.5368 21.608 24.6064 20.6349 23.9529 19.3778C23.2995 18.1136 22.9728 16.6186 22.9728 14.8928C22.9728 13.2095 23.2995 11.7322 23.9529 10.4609C24.6064 9.18963 25.5261 8.19886 26.7122 7.48864C27.9054 6.77841 29.3045 6.4233 30.9096 6.4233C31.9892 6.4233 32.9941 6.5973 33.9245 6.94531C34.862 7.28622 35.6788 7.80114 36.3748 8.49006C37.0779 9.17898 37.6248 10.0455 38.0154 11.0895C38.4061 12.1264 38.6014 13.3409 38.6014 14.733V15.9794H24.7839V13.1669H34.3294C34.3294 12.5135 34.1873 11.9347 33.9032 11.4304C33.6191 10.9261 33.225 10.532 32.7207 10.2479C32.2235 9.95668 31.6447 9.81108 30.9842 9.81108C30.2953 9.81108 29.6845 9.97088 29.1518 10.2905C28.6262 10.603 28.2143 11.0256 27.916 11.5582C27.6177 12.0838 27.465 12.6697 27.4579 13.3161V15.9901C27.4579 16.7997 27.6071 17.4993 27.9054 18.0888C28.2108 18.6783 28.6404 19.1328 29.1944 19.4524C29.7484 19.772 30.4054 19.9318 31.1653 19.9318C31.6696 19.9318 32.1312 19.8608 32.5502 19.7188C32.9693 19.5767 33.3279 19.3636 33.6262 19.0795C33.9245 18.7955 34.1518 18.4474 34.3081 18.0355L38.5055 18.3125C38.2924 19.321 37.8556 20.2017 37.1951 20.9545C36.5417 21.7003 35.6966 22.2827 34.6596 22.7017C33.6298 23.1136 32.4402 23.3196 31.0907 23.3196ZM50.2669 6.63636V10.0455H40.4125V6.63636H50.2669ZM42.6497 2.71591H47.188V17.9716C47.188 18.3906 47.252 18.7173 47.3798 18.9517C47.5076 19.179 47.6852 19.3388 47.9125 19.4311C48.1468 19.5234 48.4167 19.5696 48.7221 19.5696C48.9352 19.5696 49.1483 19.5518 49.3613 19.5163C49.5744 19.4737 49.7377 19.4418 49.8514 19.4205L50.5652 22.7976C50.3379 22.8686 50.0183 22.9503 49.6064 23.0426C49.1944 23.142 48.6937 23.2024 48.1042 23.2237C47.0105 23.2663 46.0517 23.1207 45.2278 22.7869C44.411 22.4531 43.7754 21.9347 43.3208 21.2315C42.8663 20.5284 42.6426 19.6406 42.6497 18.5682V2.71591ZM56.4512 23L51.998 6.63636H56.5897L59.1252 17.6307H59.2743L61.9164 6.63636H66.4228L69.1074 17.5668H69.2459L71.7388 6.63636H76.3198L71.8773 23H67.0726L64.2601 12.7088H64.0577L61.2452 23H56.4512ZM85.788 23.3196C84.1048 23.3196 82.6559 22.9787 81.4414 22.2969C80.234 21.608 79.3036 20.6349 78.6502 19.3778C77.9968 18.1136 77.6701 16.6186 77.6701 14.8928C77.6701 13.2095 77.9968 11.7322 78.6502 10.4609C79.3036 9.18963 80.2234 8.19886 81.4094 7.48864C82.6026 6.77841 84.0018 6.4233 85.6069 6.4233C86.6864 6.4233 87.6914 6.5973 88.6218 6.94531C89.5593 7.28622 90.3761 7.80114 91.0721 8.49006C91.7752 9.17898 92.3221 10.0455 92.7127 11.0895C93.1033 12.1264 93.2987 13.3409 93.2987 14.733V15.9794H79.4812V13.1669H89.0266C89.0266 12.5135 88.8846 11.9347 88.6005 11.4304C88.3164 10.9261 87.9222 10.532 87.418 10.2479C86.9208 9.95668 86.342 9.81108 85.6815 9.81108C84.9925 9.81108 84.3817 9.97088 83.8491 10.2905C83.3235 10.603 82.9116 11.0256 82.6133 11.5582C82.315 12.0838 82.1623 12.6697 82.1552 13.3161V15.9901C82.1552 16.7997 82.3043 17.4993 82.6026 18.0888C82.908 18.6783 83.3377 19.1328 83.8917 19.4524C84.4457 19.772 85.1026 19.9318 85.8626 19.9318C86.3668 19.9318 86.8285 19.8608 87.2475 19.7188C87.6665 19.5767 88.0252 19.3636 88.3235 19.0795C88.6218 18.7955 88.8491 18.4474 89.0053 18.0355L93.2028 18.3125C92.9897 19.321 92.5529 20.2017 91.8924 20.9545C91.239 21.7003 90.3938 22.2827 89.3569 22.7017C88.3271 23.1136 87.1374 23.3196 85.788 23.3196ZM100.799 1.18182V23H96.2603V1.18182H100.799ZM108.972 1.18182V23H104.434V1.18182H108.972Z" fill="#085CE8"/>
<path d="M115.261 23.277C114.558 23.277 113.954 23.0284 113.45 22.5312C112.952 22.027 112.704 21.4233 112.704 20.7202C112.704 20.0241 112.952 19.4276 113.45 18.9304C113.954 18.4332 114.558 18.1847 115.261 18.1847C115.942 18.1847 116.539 18.4332 117.05 18.9304C117.562 19.4276 117.817 20.0241 117.817 20.7202C117.817 21.1889 117.697 21.6186 117.455 22.0092C117.221 22.3928 116.912 22.7017 116.528 22.9361C116.145 23.1634 115.722 23.277 115.261 23.277Z" fill="black"/>
</svg>
